<?xml version="1.0" encoding="UTF-8" standalone="no"?>
<svg xmlns="http://www.w3.org/2000/svg" viewBox="0 0 213 50">
 <path d="m8.064 44.208h2.88c0.48 0 0.72 0.24 0.72 0.72v2.352c0 0.528-0.24 0.72-0.72 0.72h-10.224c-0.528 0-0.72-0.24-0.72-0.72v-2.352c0-0.528 0.24-0.72 0.72-0.72h2.832l9.6-28.128c0.192-0.48 0.48-0.672 0.96-0.672h4.656c0.48 0 0.768 0.192 0.96 0.672l9.696 28.128h3.264c0.528 0 0.72 0.24 0.72 0.72v2.352c0 0.528-0.24 0.72-0.72 0.72h-12.048c-0.48 0-0.72-0.24-0.72-0.72v-2.352c0-0.528 0.24-0.72 0.72-0.72h2.976l-2.256-6.48h-11.088zm3.168-10.08h9.072l-4.512-14.112zm5.184-19.968c-3.024 0-4.704-2.208-4.704-4.848 0-2.688 2.064-4.8 4.8-4.8 3.024 0 4.752 2.16 4.752 4.56 0 2.88-1.968 5.088-4.848 5.088zm0.096-7.152c-1.392 0-2.016 0.96-2.016 2.304 0 1.296 0.72 2.352 2.016 2.352s2.064-1.056 2.064-2.352c0-1.344-0.72-2.304-2.064-2.304zm42.24 26.736v-1.68c0-2.304-0.384-4.656-4.176-4.656-3.024 0-3.936 1.344-4.32 3.072-0.096 0.432-0.288 0.72-0.72 0.72h-3.072c-0.48 0-0.72-0.24-0.672-0.72 0.288-4.992 4.608-6.768 9.552-6.768 6.864 0 8.592 3.648 8.592 7.872v12.624h2.064c0.48 0 0.72 0.24 0.72 0.72v2.352c0 0.528-0.24 0.72-0.72 0.72h-5.664c-0.48 0-0.672-0.24-0.72-0.72l-0.336-2.208c-1.728 2.352-4.08 3.504-7.488 3.504-3.648 0-7.104-1.68-7.104-6.768 0-7.776 8.688-7.968 14.064-8.064zm0.096 7.008v-3.696c-3.888 0.048-9.072 0.048-9.072 4.272 0 2.256 1.248 3.312 3.792 3.312 3.552 0 5.28-2.064 5.28-3.888zm-3.552-19.872c-3.024 0-4.704-2.208-4.704-4.848 0-2.688 2.064-4.8 4.8-4.8 3.024 0 4.752 2.16 4.752 4.56 0 2.88-1.968 5.088-4.848 5.088zm0.096-7.152c-1.392 0-2.016 0.96-2.016 2.304 0 1.296 0.72 2.352 2.016 2.352s2.064-1.056 2.064-2.352c0-1.344-0.72-2.304-2.064-2.304z"/>
 <path d="m161.03 13.296c-4.41 0-6.91-3.12-6.91-6.432 0-3.408 3.07-6.384 7.06-6.384 4.41 0 7 3.072 7 6.096 0 3.648-2.92 6.72-7.15 6.72zm0.29-9.792c-1.68 0-2.78 1.2-2.78 3.264s1.24 3.456 2.78 3.456c1.58 0 2.83-1.392 2.83-3.456s-1.2-3.264-2.83-3.264zm-7.34 40.224h1.96c0.87 0 1.44 0.576 1.44 1.2v2.352c0 0.672-0.62 1.2-1.44 1.2h-10.22c-0.96 0-1.44-0.624-1.44-1.2v-2.352c0-0.672 0.62-1.2 1.44-1.2h2.26l9.5-27.84c0.24-0.528 0.86-0.96 1.63-0.96h4.66c0.77 0 1.39 0.432 1.63 1.008l9.6 27.792h2.69c0.96 0 1.44 0.624 1.44 1.2v2.352c0 0.672-0.63 1.2-1.44 1.2h-12.05c-0.86 0-1.44-0.576-1.44-1.2v-2.352c0-0.672 0.62-1.2 1.44-1.2h2.06l-1.92-5.52h-9.93zm3.12-10.08h7.34l-3.65-11.376zm42.86-12c-4.42 0-6.91-3.12-6.91-6.432 0-3.408 3.07-6.384 7.05-6.384 4.42 0 7.01 3.072 7.01 6.096 0 3.648-2.93 6.72-7.15 6.72zm0.14-8.976c-1.48 0-2.4 0.864-2.4 2.496 0 1.584 1.06 2.64 2.4 2.64 1.35 0 2.4-1.056 2.4-2.64 0-1.632-1-2.496-2.4-2.496zm2.93 20.592v-1.2c0-2.304-0.29-4.176-3.45-4.176-2.6 0-3.22 0.96-3.6 2.688-0.1 0.432-0.53 1.104-1.44 1.104h-3.08c-0.86 0-1.44-0.624-1.39-1.248 0.29-5.232 5.14-7.2 10.27-7.2 7.4 0 9.32 4.08 9.32 8.352v12.144h1.34c0.86 0 1.44 0.576 1.44 1.2v2.352c0 0.672-0.62 1.2-1.44 1.2h-5.66c-0.92 0-1.4-0.624-1.44-1.104l-0.1-0.816c-1.73 1.632-4.08 2.496-7.01 2.496-3.84 0-7.82-1.92-7.82-7.248 0-7.872 8.59-8.4 14.06-8.544zm0.1 7.488v-3.216c-3.7 0.048-7.63 0.288-7.63 3.792 0 2.016 0.96 2.832 3.07 2.832 3.02 0 4.56-1.776 4.56-3.408z"/>
</svg>
