<?xml version="1.0" encoding="UTF-8" standalone="no"?>
<svg xmlns="http://www.w3.org/2000/svg" viewBox="0 0 213 50">
 <path d="m8.06 44.2h2.88c0.48 0 0.72 0.24 0.72 0.72v2.35c0 0.528-0.24 0.72-0.72 0.72h-10.2c-0.528 0-0.72-0.24-0.72-0.72v-2.35c0-0.528 0.24-0.72 0.72-0.72h2.83l9.6-28.1c0.192-0.48 0.48-0.672 0.96-0.672h4.66c0.48 0 0.768 0.192 0.96 0.672l9.7 28.1h3.26c0.528 0 0.72 0.24 0.72 0.72v2.35c0 0.528-0.24 0.72-0.72 0.72h-12c-0.48 0-0.72-0.24-0.72-0.72v-2.35c0-0.528 0.24-0.72 0.72-0.72h2.98l-2.26-6.48h-11.1zm3.17-10.1h9.07l-4.51-14.1zm5.18-20c-3.02 0-4.7-2.21-4.7-4.85 0-2.69 2.06-4.8 4.8-4.8 3.02 0 4.75 2.16 4.75 4.56 0 2.88-1.97 5.09-4.85 5.09zm0.096-7.15c-1.39 0-2.02 0.96-2.02 2.3 0 1.3 0.72 2.35 2.02 2.35s2.06-1.06 2.06-2.35c0-1.34-0.72-2.3-2.06-2.3zm42.2 26.7v-1.68c0-2.3-0.384-4.66-4.18-4.66-3.02 0-3.94 1.34-4.32 3.07-0.096 0.432-0.288 0.72-0.72 0.72h-3.07c-0.48 0-0.72-0.24-0.672-0.72 0.288-4.99 4.61-6.77 9.55-6.77 6.86 0 8.59 3.65 8.59 7.87v12.6h2.06c0.48 0 0.72 0.24 0.72 0.72v2.35c0 0.528-0.24 0.72-0.72 0.72h-5.66c-0.48 0-0.672-0.24-0.72-0.72l-0.336-2.21c-1.73 2.35-4.08 3.5-7.49 3.5-3.65 0-7.1-1.68-7.1-6.77 0-7.78 8.69-7.97 14.1-8.06zm0.096 7.01v-3.7c-3.89 0.048-9.07 0.048-9.07 4.27 0 2.26 1.25 3.31 3.79 3.31 3.55 0 5.28-2.06 5.28-3.89zm-3.55-19.9c-3.02 0-4.7-2.21-4.7-4.85 0-2.69 2.06-4.8 4.8-4.8 3.02 0 4.75 2.16 4.75 4.56 0 2.88-1.97 5.09-4.85 5.09zm0.096-7.15c-1.39 0-2.02 0.96-2.02 2.3 0 1.3 0.72 2.35 2.02 2.35s2.06-1.06 2.06-2.35c0-1.34-0.72-2.3-2.06-2.3z"/>
 <path d="m161 13.3c-4.41 0-6.91-3.12-6.91-6.43 0-3.41 3.07-6.38 7.06-6.38 4.41 0 7 3.07 7 6.1 0 3.65-2.92 6.72-7.15 6.72zm0.29-9.79c-1.68 0-2.78 1.2-2.78 3.26s1.24 3.46 2.78 3.46c1.58 0 2.83-1.39 2.83-3.46s-1.2-3.26-2.83-3.26zm-7.34 40.2h1.96c0.87 0 1.44 0.576 1.44 1.2v2.35c0 0.672-0.62 1.2-1.44 1.2h-10.2c-0.96 0-1.44-0.624-1.44-1.2v-2.35c0-0.672 0.62-1.2 1.44-1.2h2.26l9.5-27.8c0.24-0.528 0.86-0.96 1.63-0.96h4.66c0.77 0 1.39 0.432 1.63 1.01l9.6 27.8h2.69c0.96 0 1.44 0.624 1.44 1.2v2.35c0 0.672-0.63 1.2-1.44 1.2h-12c-0.86 0-1.44-0.576-1.44-1.2v-2.35c0-0.672 0.62-1.2 1.44-1.2h2.06l-1.92-5.52h-9.93zm3.12-10.1h7.34l-3.65-11.4zm42.9-12c-4.42 0-6.91-3.12-6.91-6.43 0-3.41 3.07-6.38 7.05-6.38 4.42 0 7.01 3.07 7.01 6.1 0 3.65-2.93 6.72-7.15 6.72zm0.14-8.98c-1.48 0-2.4 0.864-2.4 2.5 0 1.58 1.06 2.64 2.4 2.64 1.35 0 2.4-1.06 2.4-2.64 0-1.63-1-2.5-2.4-2.5zm2.93 20.6v-1.2c0-2.3-0.29-4.18-3.45-4.18-2.6 0-3.22 0.96-3.6 2.69-0.1 0.432-0.53 1.1-1.44 1.1h-3.08c-0.86 0-1.44-0.624-1.39-1.25 0.29-5.23 5.14-7.2 10.3-7.2 7.4 0 9.32 4.08 9.32 8.35v12.1h1.34c0.86 0 1.44 0.576 1.44 1.2v2.35c0 0.672-0.62 1.2-1.44 1.2h-5.66c-0.92 0-1.4-0.624-1.44-1.1l-0.1-0.816c-1.73 1.63-4.08 2.5-7.01 2.5-3.84 0-7.82-1.92-7.82-7.25 0-7.87 8.59-8.4 14.1-8.54zm0.1 7.49v-3.22c-3.7 0.048-7.63 0.288-7.63 3.79 0 2.02 0.96 2.83 3.07 2.83 3.02 0 4.56-1.78 4.56-3.41z"/>
</svg>
