<?xml version="1.0" encoding="UTF-8" standalone="no"?>
<svg xmlns="http://www.w3.org/2000/svg" viewBox="0 0 320 85">
 <path d="m0.548 14.904c0-9.684 6.156-12.96 11.268-12.96 2.7 0 5.364 0.648 7.524 1.836 0.324 0.18 0.468 0.36 0.468 0.72v4.644c0 0.36-0.18 0.54-0.54 0.54h-2.016c-0.36 0-0.54-0.144-0.504-0.54l0.108-2.52c-1.332-0.9-3.204-1.512-5.076-1.512-5.256 0-6.912 4.14-6.912 9.216 0 5.4 1.908 9.972 7.524 9.972 1.944 0 3.564-0.396 4.5-1.152l-0.144-2.52c-0.036-0.396 0.144-0.54 0.504-0.54h2.052c0.36 0 0.54 0.144 0.54 0.54v4.572c0 0.36 0 0.504-0.36 0.684-1.62 0.792-4.212 1.548-7.236 1.548-8.172 0-11.7-5.076-11.7-12.528zm33.444-6.12c0.792 0 1.98 0.18 2.304 0.288 0.396 0.144 0.432 0.288 0.432 0.648v4.86c0 0.396-0.18 0.54-0.54 0.54h-2.34c-0.36 0-0.54-0.144-0.504-0.54l0.144-2.088c-0.18-0.036-0.432-0.036-0.612-0.036-2.16 0-3.816 1.872-3.816 4.968v6.732h3.96c0.36 0 0.54 0.18 0.54 0.54v1.764c0 0.396-0.18 0.54-0.54 0.54h-9.9c-0.36 0-0.54-0.18-0.54-0.54v-1.764c0-0.396 0.18-0.54 0.54-0.54h1.908v-12.024h-1.944c-0.36 0-0.54-0.18-0.54-0.54v-1.872c0-0.396 0.144-0.54 0.54-0.54h4.752c0.36 0 0.54 0.18 0.612 0.54l0.396 2.556c0.72-1.728 2.556-3.492 5.148-3.492zm13.428 18.648c-5.976 0-8.28-3.888-8.28-9.36 0-4.752 2.592-9.288 8.244-9.288 5.508 0 7.02 4.5 7.02 8.388 0 0.324 0 0.792-0.036 1.224s-0.108 0.576-0.648 0.576h-10.584c0.216 3.06 1.188 5.436 5.076 5.436 1.62 0 2.772-0.36 4.068-0.936 0.36-0.18 0.576-0.072 0.72 0.288l0.684 1.656c0.144 0.36 0 0.54-0.324 0.72-1.26 0.684-3.456 1.296-5.94 1.296zm-4.284-11.124h7.488c0.036-2.16-0.576-4.5-3.528-4.5-3.132 0-3.888 2.592-3.96 4.5zm19.512-4.176v9.072c0 2.016 0.288 3.204 2.16 3.204 0.936 0 1.548-0.216 2.196-0.504 0.288-0.108 0.432-0.072 0.576 0.288l0.648 1.656c0.144 0.36 0 0.54-0.324 0.72-1.008 0.504-2.736 0.864-4.104 0.864-5.184 0-5.184-3.492-5.184-6.624v-8.676h-2.052c-0.36 0-0.54-0.18-0.54-0.54v-1.872c0-0.396 0.18-0.54 0.54-0.54h2.052v-4.86c0-0.36 0.144-0.54 0.54-0.54h2.952c0.36 0 0.54 0.18 0.54 0.54v4.86h3.636c0.36 0 0.54 0.18 0.54 0.54v1.872c0 0.396-0.18 0.54-0.54 0.54zm15.66 15.3c-5.976 0-8.28-3.888-8.28-9.36 0-4.752 2.592-9.288 8.244-9.288 5.508 0 7.02 4.5 7.02 8.388 0 0.324 0 0.792-0.036 1.224s-0.108 0.576-0.648 0.576h-10.584c0.216 3.06 1.188 5.436 5.076 5.436 1.62 0 2.772-0.36 4.068-0.936 0.36-0.18 0.576-0.072 0.72 0.288l0.684 1.656c0.144 0.36 0 0.54-0.324 0.72-1.26 0.684-3.456 1.296-5.94 1.296zm-4.284-11.124h7.488c0.036-2.16-0.576-4.5-3.528-4.5-3.132 0-3.888 2.592-3.96 4.5zm20.988 10.152v-1.764c0-0.36 0.18-0.54 0.54-0.54h1.872v-18.72h-1.872c-0.36 0-0.54-0.18-0.54-0.54v-1.8c0-0.396 0.144-0.54 0.54-0.54 2.304-0.108 5.578-0.216 7.668-0.216 6.19 0 9.36 2.088 9.36 6.696 0 3.24-1.8 5.652-4.36 6.84l4.22 8.28h2.23c0.36 0 0.54 0.18 0.54 0.54v1.764c0 0.396-0.18 0.54-0.54 0.54h-4.75c-0.4 0-0.62-0.144-0.8-0.468l-4.89-9.684h-0.72c-0.87 0-1.44-0.036-2.05-0.108v7.416h2.26c0.36 0 0.54 0.18 0.54 0.54v1.764c0 0.396-0.14 0.54-0.54 0.54h-8.168c-0.36 0-0.54-0.144-0.54-0.54zm6.448-21.132v8.676c0.28 0.036 0.54 0.036 0.82 0.036 3.82 0 6.16-1.476 6.16-4.608 0-3.42-2.77-4.104-5.69-4.104zm15.55 13.032c0-7.596 5.07-9.576 8.53-9.576 2.81 0 8.1 0.864 8.1 8.82 0 6.732-3.89 9.828-8.68 9.828-4.89 0-7.95-2.952-7.95-9.072zm8.28 6.12c2.95 0 4.14-2.232 4.14-6.372 0-4.032-1.12-6.372-4.21-6.372-2.99 0-4.14 2.34-4.14 5.832 0 3.204 0.61 6.912 4.21 6.912zm27.97-0.324h1.58c0.36 0 0.54 0.18 0.54 0.54v1.764c0 0.396-0.18 0.54-0.54 0.54h-4.03c-0.36 0-0.47-0.18-0.54-0.54l-0.32-2.016c-1.62 2.088-3.67 2.988-6.05 2.988-3.89 0-5.83-2.052-5.83-6.12v-9.18h-1.91c-0.36 0-0.54-0.18-0.54-0.54v-1.872c0-0.396 0.14-0.54 0.54-0.54h5.4c0.36 0 0.54 0.18 0.54 0.54v10.512c0 2.556 0.25 3.996 3.1 3.996 2.26 0 4.03-1.764 4.03-3.528v-8.568h-2.27c-0.36 0-0.54-0.18-0.54-0.54v-1.872c0-0.396 0.18-0.54 0.54-0.54h5.76c0.36 0 0.54 0.18 0.54 0.54zm4.1-12.528v-1.908c0-0.36 0.15-0.54 0.54-0.54h4.9c0.36 0 0.5 0.18 0.58 0.54l0.32 2.088c1.48-2.232 3.64-3.024 5.76-3.024 3.64 0 5.58 2.052 5.58 6.12v9.252h2.09c0.36 0 0.54 0.18 0.54 0.54v1.764c0 0.396-0.18 0.54-0.54 0.54h-7.85c-0.36 0-0.54-0.18-0.54-0.54v-1.764c0-0.396 0.18-0.54 0.54-0.54h1.73v-7.452c0-2.556-0.25-4.356-3.1-4.356-2.27 0-4.03 1.764-4.03 3.528v8.28h2.23c0.4 0 0.54 0.18 0.54 0.54v1.764c0 0.396-0.18 0.54-0.54 0.54h-8.17c-0.36 0-0.54-0.18-0.54-0.54v-1.764c0-0.396 0.18-0.54 0.54-0.54h1.91v-12.024h-1.95c-0.39 0-0.54-0.108-0.54-0.504zm38.67 12.528h1.55c0.36 0 0.54 0.18 0.54 0.54v1.764c0 0.396-0.18 0.54-0.54 0.54h-4.07c-0.36 0-0.51-0.18-0.54-0.54l-0.29-2.124c-1.3 2.196-3.42 3.096-5.87 3.096-4.61 0-7.34-2.844-7.34-8.82 0-6.948 3.56-9.828 7.92-9.828 2.3 0 3.92 1.044 4.61 2.016v-7.668h-1.91c-0.36 0-0.54-0.18-0.54-0.54v-1.908c0-0.396 0.14-0.54 0.54-0.54h5.4c0.36 0 0.54 0.144 0.54 0.54zm-4.03-3.924v-6.336s-1.34-1.944-4-1.944c-2.52 0-4.46 1.512-4.46 6.048 0 3.204 0.46 6.3 4.24 6.3 2.06 0 4.22-1.476 4.22-4.068z"/>
 <path d="m63.188 69.492v8.712c0 1.908 0.288 2.844 1.62 2.844 0.828 0 1.296-0.18 2.016-0.468 0.432-0.18 1.044-0.036 1.26 0.468l0.648 1.656c0.216 0.54-0.072 0.9-0.576 1.188-1.044 0.504-2.916 0.9-4.356 0.9-5.724 0-5.724-3.852-5.724-6.984v-8.316h-1.512c-0.648 0-1.08-0.432-1.08-0.9v-1.872c0-0.504 0.468-0.9 1.08-0.9h1.512v-4.5c0-0.432 0.36-0.9 1.08-0.9h2.952c0.648 0 1.08 0.432 1.08 0.9v4.5h3.096c0.648 0 1.08 0.432 1.08 0.9v1.872c0 0.504-0.468 0.9-1.08 0.9zm-9.684 11.124l0.684 1.656c0.216 0.54-0.072 0.9-0.576 1.188-1.26 0.684-3.6 1.332-6.192 1.332-6.336 0-8.82-4.176-8.82-9.72 0-4.824 2.772-9.648 8.784-9.648 5.94 0 7.56 4.824 7.56 8.748 0 0.324 0 0.792-0.036 1.26s-0.252 0.9-1.188 0.9h-10.008c0.252 2.844 1.152 4.716 4.5 4.716 1.512 0 2.52-0.324 3.816-0.9 0.612-0.288 1.296 0.036 1.476 0.468zm30.888 0l0.684 1.656c0.216 0.54-0.072 0.9-0.576 1.188-1.26 0.684-3.6 1.332-6.192 1.332-6.336 0-8.82-4.176-8.82-9.72 0-4.824 2.772-9.648 8.784-9.648 5.94 0 7.56 4.824 7.56 8.748 0 0.324 0 0.792-0.036 1.26s-0.252 0.9-1.188 0.9h-10.008c0.252 2.844 1.152 4.716 4.5 4.716 1.512 0 2.52-0.324 3.816-0.9 0.612-0.288 1.296 0.036 1.476 0.468zm-55.404-13.968l0.18 1.152c1.008-1.296 2.7-2.376 4.824-2.376 0.864 0 2.16 0.18 2.484 0.324 0.72 0.252 0.792 0.576 0.792 0.972v4.86c0 0.504-0.468 0.9-1.08 0.9h-2.34c-0.612 0-1.08-0.396-1.044-0.936l0.108-1.728h-0.036c-1.8 0-3.276 1.656-3.276 4.608v6.372h3.42c0.648 0 1.08 0.432 1.08 0.9v1.764c0 0.504-0.468 0.9-1.08 0.9h-9.9c-0.648 0-1.08-0.432-1.08-0.9v-1.764c0-0.504 0.468-0.9 1.08-0.9h1.368v-11.304h-1.404c-0.648 0-1.08-0.432-1.08-0.9v-1.872c0-0.504 0.396-0.9 1.08-0.9h4.752c0.648 0 1.044 0.432 1.152 0.828zm45.612 6.3h6.372c-0.036-1.98-0.612-3.78-2.988-3.78-2.52 0-3.24 1.98-3.384 3.78zm-30.888 0h6.372c-0.036-1.98-0.612-3.78-2.988-3.78-2.52 0-3.24 1.98-3.384 3.78zm50.76 10.512v-1.764c0-0.468 0.432-0.9 1.08-0.9h1.332v-18h-1.332c-0.648 0-1.08-0.432-1.08-0.9v-1.8c0-0.504 0.396-0.9 1.044-0.9 2.304-0.108 5.614-0.216 7.704-0.216 6.41 0 9.9 2.304 9.9 7.056 0 3.132-1.73 5.652-4.28 6.984l3.99 7.776h1.84c0.65 0 1.08 0.432 1.08 0.9v1.764c0 0.504-0.47 0.9-1.08 0.9h-4.75c-0.62 0-1.08-0.324-1.26-0.648l-4.83-9.504h-0.32c-0.61 0-1.08 0-1.51-0.036v6.624h1.72c0.65 0 1.08 0.432 1.08 0.9v1.764c0 0.504-0.39 0.9-1.08 0.9h-8.168c-0.612 0-1.08-0.396-1.08-0.9zm-74.088-5.832v4.572c0 0.36 0 0.684-0.648 1.008-1.62 0.792-4.356 1.584-7.488 1.584-8.496 0-12.24-5.364-12.24-12.888 0-9.864 6.516-13.32 11.808-13.32 2.772 0 5.616 0.684 7.776 1.872 0.504 0.288 0.756 0.612 0.756 1.044v4.644c0 0.468-0.432 0.9-1.08 0.9h-2.016c-0.612 0-1.08-0.396-1.044-0.9l0.108-2.376c-1.296-0.828-2.88-1.296-4.536-1.296-4.788 0-6.372 3.888-6.372 8.856 0 5.292 1.836 9.612 6.984 9.612 1.728 0 3.06-0.288 3.96-0.9l-0.144-2.376c-0.036-0.54 0.432-0.936 1.044-0.936h2.052c0.612 0 1.08 0.396 1.08 0.9zm81.616-14.94v7.992h0.28c3.53 0 5.62-1.332 5.62-4.248 0-3.168-2.3-3.744-5.15-3.744zm14.47 12.672c0-7.812 5.47-9.936 9.07-9.936 2.95 0 8.64 0.864 8.64 9.18 0 6.84-4.18 10.188-9.22 10.188-5.18 0-8.49-3.204-8.49-9.432zm8.82 5.76c2.52 0 3.6-1.98 3.6-6.012 0-3.924-1.05-6.012-3.67-6.012-2.52 0-3.6 2.088-3.6 5.472 0 3.132 0.61 6.552 3.67 6.552zm28.51-0.324h1.04c0.65 0 1.08 0.432 1.08 0.9v1.764c0 0.504-0.46 0.9-1.08 0.9h-4.03c-0.72 0-1.01-0.468-1.08-0.828l-0.14-0.972c-1.55 1.512-3.57 2.232-5.69 2.232-4.18 0-6.37-2.304-6.37-6.48v-8.82h-1.37c-0.65 0-1.08-0.432-1.08-0.9v-1.872c0-0.504 0.4-0.9 1.08-0.9h5.4c0.65 0 1.08 0.432 1.08 0.9v10.512c0 2.556 0.18 3.636 2.56 3.636 1.9 0 3.49-1.584 3.49-3.168v-8.208h-1.73c-0.65 0-1.08-0.432-1.08-0.9v-1.872c0-0.504 0.47-0.9 1.08-0.9h5.76c0.65 0 1.08 0.432 1.08 0.9zm3.02-12.168v-1.908c0-0.432 0.36-0.9 1.08-0.9h4.9c0.68 0 1.04 0.432 1.12 0.828l0.14 0.972c1.48-1.584 3.53-2.196 5.4-2.196 3.92 0 6.12 2.304 6.12 6.48v8.892h1.55c0.65 0 1.08 0.432 1.08 0.9v1.764c0 0.504-0.47 0.9-1.08 0.9h-7.85c-0.65 0-1.08-0.432-1.08-0.9v-1.764c0-0.504 0.47-0.9 1.08-0.9h1.19v-7.092c0-2.556-0.22-3.996-2.56-3.996-1.91 0-3.49 1.584-3.49 3.168v7.92h1.69c0.72 0 1.08 0.468 1.08 0.9v1.764c0 0.504-0.47 0.9-1.08 0.9h-8.17c-0.65 0-1.08-0.432-1.08-0.9v-1.764c0-0.504 0.47-0.9 1.08-0.9h1.37v-11.304h-1.41c-0.61 0-1.08-0.36-1.08-0.864zm39.75 12.168h1.01c0.64 0 1.08 0.432 1.08 0.9v1.764c0 0.504-0.47 0.9-1.08 0.9h-4.07c-0.69 0-1.05-0.468-1.08-0.864l-0.11-0.864c-1.4 1.476-3.38 2.16-5.51 2.16-4.89 0-7.88-3.096-7.88-9.18 0-7.056 3.85-10.188 8.46-10.188 1.73 0 3.13 0.576 4.07 1.224v-6.156h-1.37c-0.65 0-1.08-0.432-1.08-0.9v-1.908c0-0.504 0.39-0.9 1.08-0.9h5.4c0.61 0 1.08 0.396 1.08 0.9zm-5.11-3.564v-6.264c-0.33-0.396-1.52-1.656-3.46-1.656-2.2 0-3.92 1.332-3.92 5.688 0 3.204 0.43 5.94 3.7 5.94 1.77 0 3.68-1.332 3.68-3.708zm15.84-15.3v-1.836c0-0.504 0.39-0.9 1.04-0.9 2.3-0.108 5.44-0.216 7.81-0.216 5.29 0 13.68 1.116 13.68 12.132 0 9.18-5.83 13.248-13.97 13.248h-7.48c-0.65 0-1.08-0.432-1.08-0.9v-1.764c0-0.504 0.46-0.9 1.08-0.9h1.33v-17.964h-1.33c-0.65 0-1.08-0.432-1.08-0.9zm7.52 18.9h1.84c5.04 0 7.77-3.708 7.77-9.072 0-6.156-2.45-9.072-7.85-9.072h-1.76zm27.29-7.884v-0.9c0-1.728-0.22-3.132-2.59-3.132-1.95 0-2.42 0.72-2.7 2.016-0.08 0.324-0.4 0.828-1.08 0.828h-2.31c-0.65 0-1.08-0.468-1.04-0.936 0.21-3.924 3.85-5.4 7.7-5.4 5.55 0 6.99 3.06 6.99 6.264v9.108h1c0.65 0 1.08 0.432 1.08 0.9v1.764c0 0.504-0.46 0.9-1.08 0.9h-4.24c-0.69 0-1.05-0.468-1.08-0.828l-0.08-0.612c-1.29 1.224-3.06 1.872-5.25 1.872-2.88 0-5.87-1.44-5.87-5.436 0-5.904 6.44-6.3 10.55-6.408zm0.07 5.616v-2.412c-2.77 0.036-5.72 0.216-5.72 2.844 0 1.512 0.72 2.124 2.3 2.124 2.27 0 3.42-1.332 3.42-2.556zm14.87-11.916l0.18 1.152c1.01-1.296 2.7-2.376 4.82-2.376 0.87 0 2.16 0.18 2.49 0.324 0.72 0.252 0.79 0.576 0.79 0.972v4.86c0 0.504-0.47 0.9-1.08 0.9h-2.34c-0.61 0-1.08-0.396-1.05-0.936l0.11-1.728h-0.03c-1.8 0-3.28 1.656-3.28 4.608v6.372h3.42c0.65 0 1.08 0.432 1.08 0.9v1.764c0 0.504-0.47 0.9-1.08 0.9h-9.9c-0.65 0-1.08-0.432-1.08-0.9v-1.764c0-0.504 0.47-0.9 1.08-0.9h1.37v-11.304h-1.41c-0.64 0-1.08-0.432-1.08-0.9v-1.872c0-0.504 0.4-0.9 1.08-0.9h4.76c0.64 0 1.04 0.432 1.15 0.828zm16.85-8.964v14.004h1l5.48-5.364c0.32-0.324 0.82-0.504 1.33-0.504h2.81c0.64 0 1.08 0.432 1.08 0.9v1.872c0 0.504-0.47 0.9-1.08 0.9h-1.91l-3.64 3.528 4.68 7.776h1.77c0.64 0 1.08 0.432 1.08 0.9v1.764c0 0.504-0.47 0.9-1.08 0.9h-4.65c-0.61 0-1.04-0.288-1.29-0.648l-5.3-8.532h-0.28v5.616h1.36c0.65 0 1.08 0.432 1.08 0.9v1.764c0 0.504-0.46 0.9-1.08 0.9h-7.84c-0.65 0-1.08-0.432-1.08-0.9v-1.764c0-0.504 0.46-0.9 1.08-0.9h1.36v-20.376h-1.4c-0.65 0-1.08-0.432-1.08-0.9v-1.836c0-0.432 0.36-0.9 1.08-0.9h5.44c0.64 0 1.08 0.432 1.08 0.9zm28.72 24.588c0.22 0.54-0.07 0.9-0.57 1.188-1.26 0.684-3.6 1.332-6.19 1.332-6.34 0-8.82-4.176-8.82-9.72 0-4.824 2.77-9.648 8.78-9.648 5.94 0 7.56 4.824 7.56 8.748 0 0.324 0 0.792-0.04 1.26-0.03 0.468-0.25 0.9-1.18 0.9h-10.01c0.25 2.844 1.15 4.716 4.5 4.716 1.51 0 2.52-0.324 3.81-0.9 0.62-0.288 1.3 0.036 1.48 0.468zm-10.47-9.324h6.37c-0.04-1.98-0.61-3.78-2.99-3.78-2.52 0-3.24 1.98-3.38 3.78zm19.11-6.3l0.18 1.152c1.01-1.296 2.7-2.376 4.83-2.376 0.86 0 2.16 0.18 2.48 0.324 0.72 0.252 0.79 0.576 0.79 0.972v4.86c0 0.504-0.46 0.9-1.08 0.9h-2.34c-0.61 0-1.08-0.396-1.04-0.936l0.11-1.728h-0.04c-1.8 0-3.27 1.656-3.27 4.608v6.372h3.42c0.64 0 1.08 0.432 1.08 0.9v1.764c0 0.504-0.47 0.9-1.08 0.9h-9.9c-0.65 0-1.08-0.432-1.08-0.9v-1.764c0-0.504 0.46-0.9 1.08-0.9h1.36v-11.304h-1.4c-0.65 0-1.08-0.432-1.08-0.9v-1.872c0-0.504 0.4-0.9 1.08-0.9h4.75c0.65 0 1.05 0.432 1.15 0.828z"/>
</svg>
