<?xml version="1.0" encoding="UTF-8" standalone="no"?>
<svg xmlns="http://www.w3.org/2000/svg" viewBox="0 0 320 85">
 <path d="m0.548 14.9c0-9.68 6.16-13 11.3-13 2.7 0 5.36 0.648 7.52 1.84 0.324 0.18 0.468 0.36 0.468 0.72v4.64c0 0.36-0.18 0.54-0.54 0.54h-2.02c-0.36 0-0.54-0.144-0.504-0.54l0.108-2.52c-1.33-0.9-3.2-1.51-5.08-1.51-5.26 0-6.91 4.14-6.91 9.22 0 5.4 1.91 9.97 7.52 9.97 1.94 0 3.56-0.396 4.5-1.15l-0.144-2.52c-0.036-0.396 0.144-0.54 0.504-0.54h2.05c0.36 0 0.54 0.144 0.54 0.54v4.57c0 0.36 0 0.504-0.36 0.684-1.62 0.792-4.21 1.55-7.24 1.55-8.17 0-11.7-5.08-11.7-12.5zm33.4-6.12c0.792 0 1.98 0.18 2.3 0.288 0.396 0.144 0.432 0.288 0.432 0.648v4.86c0 0.396-0.18 0.54-0.54 0.54h-2.34c-0.36 0-0.54-0.144-0.504-0.54l0.144-2.09c-0.18-0.036-0.432-0.036-0.612-0.036-2.16 0-3.82 1.87-3.82 4.97v6.73h3.96c0.36 0 0.54 0.18 0.54 0.54v1.76c0 0.396-0.18 0.54-0.54 0.54h-9.9c-0.36 0-0.54-0.18-0.54-0.54v-1.76c0-0.396 0.18-0.54 0.54-0.54h1.91v-12h-1.94c-0.36 0-0.54-0.18-0.54-0.54v-1.87c0-0.396 0.144-0.54 0.54-0.54h4.75c0.36 0 0.54 0.18 0.612 0.54l0.396 2.56c0.72-1.73 2.56-3.49 5.15-3.49zm13.4 18.6c-5.98 0-8.28-3.89-8.28-9.36 0-4.75 2.59-9.29 8.24-9.29 5.51 0 7.02 4.5 7.02 8.39 0 0.324 0 0.792-0.036 1.22s-0.108 0.576-0.648 0.576h-10.6c0.216 3.06 1.19 5.44 5.08 5.44 1.62 0 2.77-0.36 4.07-0.936 0.36-0.18 0.576-0.072 0.72 0.288l0.684 1.66c0.144 0.36 0 0.54-0.324 0.72-1.26 0.684-3.46 1.3-5.94 1.3zm-4.28-11.1h7.49c0.036-2.16-0.576-4.5-3.53-4.5-3.13 0-3.89 2.59-3.96 4.5zm19.5-4.18v9.07c0 2.02 0.288 3.2 2.16 3.2 0.936 0 1.55-0.216 2.2-0.504 0.288-0.108 0.432-0.072 0.576 0.288l0.648 1.66c0.144 0.36 0 0.54-0.324 0.72-1.01 0.504-2.74 0.864-4.1 0.864-5.18 0-5.18-3.49-5.18-6.62v-8.68h-2.05c-0.36 0-0.54-0.18-0.54-0.54v-1.87c0-0.396 0.18-0.54 0.54-0.54h2.05v-4.86c0-0.36 0.144-0.54 0.54-0.54h2.95c0.36 0 0.54 0.18 0.54 0.54v4.86h3.64c0.36 0 0.54 0.18 0.54 0.54v1.87c0 0.396-0.18 0.54-0.54 0.54zm15.7 15.3c-5.98 0-8.28-3.89-8.28-9.36 0-4.75 2.59-9.29 8.24-9.29 5.51 0 7.02 4.5 7.02 8.39 0 0.324 0 0.792-0.036 1.22s-0.108 0.576-0.648 0.576h-10.6c0.216 3.06 1.19 5.44 5.08 5.44 1.62 0 2.77-0.36 4.07-0.936 0.36-0.18 0.576-0.072 0.72 0.288l0.684 1.66c0.144 0.36 0 0.54-0.324 0.72-1.26 0.684-3.46 1.3-5.94 1.3zm-4.28-11.1h7.49c0.036-2.16-0.576-4.5-3.53-4.5-3.13 0-3.89 2.59-3.96 4.5zm21 10.2v-1.76c0-0.36 0.18-0.54 0.54-0.54h1.87v-18.7h-1.87c-0.36 0-0.54-0.18-0.54-0.54v-1.8c0-0.396 0.144-0.54 0.54-0.54 2.3-0.108 5.58-0.216 7.67-0.216 6.19 0 9.36 2.09 9.36 6.7 0 3.24-1.8 5.65-4.36 6.84l4.22 8.28h2.23c0.36 0 0.54 0.18 0.54 0.54v1.76c0 0.396-0.18 0.54-0.54 0.54h-4.75c-0.4 0-0.62-0.144-0.8-0.468l-4.89-9.68h-0.72c-0.87 0-1.44-0.036-2.05-0.108v7.42h2.26c0.36 0 0.54 0.18 0.54 0.54v1.76c0 0.396-0.14 0.54-0.54 0.54h-8.17c-0.36 0-0.54-0.144-0.54-0.54zm6.45-21.1v8.68c0.28 0.036 0.54 0.036 0.82 0.036 3.82 0 6.16-1.48 6.16-4.61 0-3.42-2.77-4.1-5.69-4.1zm15.6 13c0-7.6 5.07-9.58 8.53-9.58 2.81 0 8.1 0.864 8.1 8.82 0 6.73-3.89 9.83-8.68 9.83-4.89 0-7.95-2.95-7.95-9.07zm8.28 6.12c2.95 0 4.14-2.23 4.14-6.37 0-4.03-1.12-6.37-4.21-6.37-2.99 0-4.14 2.34-4.14 5.83 0 3.2 0.61 6.91 4.21 6.91zm28-0.324h1.58c0.36 0 0.54 0.18 0.54 0.54v1.76c0 0.396-0.18 0.54-0.54 0.54h-4.03c-0.36 0-0.47-0.18-0.54-0.54l-0.32-2.02c-1.62 2.09-3.67 2.99-6.05 2.99-3.89 0-5.83-2.05-5.83-6.12v-9.18h-1.91c-0.36 0-0.54-0.18-0.54-0.54v-1.87c0-0.396 0.14-0.54 0.54-0.54h5.4c0.36 0 0.54 0.18 0.54 0.54v10.5c0 2.56 0.25 4 3.1 4 2.26 0 4.03-1.76 4.03-3.53v-8.57h-2.27c-0.36 0-0.54-0.18-0.54-0.54v-1.87c0-0.396 0.18-0.54 0.54-0.54h5.76c0.36 0 0.54 0.18 0.54 0.54zm4.1-12.5v-1.91c0-0.36 0.15-0.54 0.54-0.54h4.9c0.36 0 0.5 0.18 0.58 0.54l0.32 2.09c1.48-2.23 3.64-3.02 5.76-3.02 3.64 0 5.58 2.05 5.58 6.12v9.25h2.09c0.36 0 0.54 0.18 0.54 0.54v1.76c0 0.396-0.18 0.54-0.54 0.54h-7.85c-0.36 0-0.54-0.18-0.54-0.54v-1.76c0-0.396 0.18-0.54 0.54-0.54h1.73v-7.45c0-2.56-0.25-4.36-3.1-4.36-2.27 0-4.03 1.76-4.03 3.53v8.28h2.23c0.4 0 0.54 0.18 0.54 0.54v1.76c0 0.396-0.18 0.54-0.54 0.54h-8.17c-0.36 0-0.54-0.18-0.54-0.54v-1.76c0-0.396 0.18-0.54 0.54-0.54h1.91v-12h-1.95c-0.39 0-0.54-0.108-0.54-0.504zm38.7 12.5h1.55c0.36 0 0.54 0.18 0.54 0.54v1.76c0 0.396-0.18 0.54-0.54 0.54h-4.07c-0.36 0-0.51-0.18-0.54-0.54l-0.29-2.12c-1.3 2.2-3.42 3.1-5.87 3.1-4.61 0-7.34-2.84-7.34-8.82 0-6.95 3.56-9.83 7.92-9.83 2.3 0 3.92 1.04 4.61 2.02v-7.67h-1.91c-0.36 0-0.54-0.18-0.54-0.54v-1.91c0-0.396 0.14-0.54 0.54-0.54h5.4c0.36 0 0.54 0.144 0.54 0.54zm-4.03-3.92v-6.34s-1.34-1.94-4-1.94c-2.52 0-4.46 1.51-4.46 6.05 0 3.2 0.46 6.3 4.24 6.3 2.06 0 4.22-1.48 4.22-4.07z"/>
 <path d="m63.2 69.5v8.71c0 1.91 0.288 2.84 1.62 2.84 0.828 0 1.3-0.18 2.02-0.468 0.432-0.18 1.04-0.036 1.26 0.468l0.648 1.66c0.216 0.54-0.072 0.9-0.576 1.19-1.04 0.504-2.92 0.9-4.36 0.9-5.72 0-5.72-3.85-5.72-6.98v-8.32h-1.51c-0.648 0-1.08-0.432-1.08-0.9v-1.87c0-0.504 0.468-0.9 1.08-0.9h1.51v-4.5c0-0.432 0.36-0.9 1.08-0.9h2.95c0.648 0 1.08 0.432 1.08 0.9v4.5h3.1c0.648 0 1.08 0.432 1.08 0.9v1.87c0 0.504-0.468 0.9-1.08 0.9zm-9.68 11.1l0.684 1.66c0.216 0.54-0.072 0.9-0.576 1.19-1.26 0.684-3.6 1.33-6.19 1.33-6.34 0-8.82-4.18-8.82-9.72 0-4.82 2.77-9.65 8.78-9.65 5.94 0 7.56 4.82 7.56 8.75 0 0.324 0 0.792-0.036 1.26s-0.252 0.9-1.19 0.9h-10c0.252 2.84 1.15 4.72 4.5 4.72 1.51 0 2.52-0.324 3.82-0.9 0.612-0.288 1.3 0.036 1.48 0.468zm30.9 0l0.684 1.66c0.216 0.54-0.072 0.9-0.576 1.19-1.26 0.684-3.6 1.33-6.19 1.33-6.34 0-8.82-4.18-8.82-9.72 0-4.82 2.77-9.65 8.78-9.65 5.94 0 7.56 4.82 7.56 8.75 0 0.324 0 0.792-0.036 1.26s-0.252 0.9-1.19 0.9h-10c0.252 2.84 1.15 4.72 4.5 4.72 1.51 0 2.52-0.324 3.82-0.9 0.612-0.288 1.3 0.036 1.48 0.468zm-55.4-14l0.18 1.15c1.01-1.3 2.7-2.38 4.82-2.38 0.864 0 2.16 0.18 2.48 0.324 0.72 0.252 0.792 0.576 0.792 0.972v4.86c0 0.504-0.468 0.9-1.08 0.9h-2.34c-0.612 0-1.08-0.396-1.04-0.936l0.108-1.73h-0.036c-1.8 0-3.28 1.66-3.28 4.61v6.37h3.42c0.648 0 1.08 0.432 1.08 0.9v1.76c0 0.504-0.468 0.9-1.08 0.9h-9.9c-0.648 0-1.08-0.432-1.08-0.9v-1.76c0-0.504 0.468-0.9 1.08-0.9h1.37v-11.3h-1.4c-0.648 0-1.08-0.432-1.08-0.9v-1.87c0-0.504 0.396-0.9 1.08-0.9h4.75c0.648 0 1.04 0.432 1.15 0.828zm45.6 6.3h6.37c-0.036-1.98-0.612-3.78-2.99-3.78-2.52 0-3.24 1.98-3.38 3.78zm-30.9 0h6.37c-0.036-1.98-0.612-3.78-2.99-3.78-2.52 0-3.24 1.98-3.38 3.78zm50.8 10.5v-1.76c0-0.468 0.432-0.9 1.08-0.9h1.33v-18h-1.33c-0.648 0-1.08-0.432-1.08-0.9v-1.8c0-0.504 0.396-0.9 1.04-0.9 2.3-0.108 5.61-0.216 7.7-0.216 6.41 0 9.9 2.3 9.9 7.06 0 3.13-1.73 5.65-4.28 6.98l3.99 7.78h1.84c0.65 0 1.08 0.432 1.08 0.9v1.76c0 0.504-0.47 0.9-1.08 0.9h-4.75c-0.62 0-1.08-0.324-1.26-0.648l-4.83-9.5h-0.32c-0.61 0-1.08 0-1.51-0.036v6.62h1.72c0.65 0 1.08 0.432 1.08 0.9v1.76c0 0.504-0.39 0.9-1.08 0.9h-8.17c-0.612 0-1.08-0.396-1.08-0.9zm-74.1-5.83v4.57c0 0.36 0 0.684-0.648 1.01-1.62 0.792-4.36 1.58-7.49 1.58-8.5 0-12.2-5.36-12.2-12.9 0-9.86 6.52-13.3 11.8-13.3 2.77 0 5.62 0.684 7.78 1.87 0.504 0.288 0.756 0.612 0.756 1.04v4.64c0 0.468-0.432 0.9-1.08 0.9h-2.02c-0.612 0-1.08-0.396-1.04-0.9l0.108-2.38c-1.3-0.828-2.88-1.3-4.54-1.3-4.79 0-6.37 3.89-6.37 8.86 0 5.29 1.84 9.61 6.98 9.61 1.73 0 3.06-0.288 3.96-0.9l-0.144-2.38c-0.036-0.54 0.432-0.936 1.04-0.936h2.05c0.612 0 1.08 0.396 1.08 0.9zm81.6-14.9v7.99h0.28c3.53 0 5.62-1.33 5.62-4.25 0-3.17-2.3-3.74-5.15-3.74zm14.5 12.7c0-7.81 5.47-9.94 9.07-9.94 2.95 0 8.64 0.864 8.64 9.18 0 6.84-4.18 10.2-9.22 10.2-5.18 0-8.49-3.2-8.49-9.43zm8.82 5.76c2.52 0 3.6-1.98 3.6-6.01 0-3.92-1.05-6.01-3.67-6.01-2.52 0-3.6 2.09-3.6 5.47 0 3.13 0.61 6.55 3.67 6.55zm28.5-0.324h1.04c0.65 0 1.08 0.432 1.08 0.9v1.76c0 0.504-0.46 0.9-1.08 0.9h-4.03c-0.72 0-1.01-0.468-1.08-0.828l-0.14-0.972c-1.55 1.51-3.57 2.23-5.69 2.23-4.18 0-6.37-2.3-6.37-6.48v-8.82h-1.37c-0.65 0-1.08-0.432-1.08-0.9v-1.87c0-0.504 0.4-0.9 1.08-0.9h5.4c0.65 0 1.08 0.432 1.08 0.9v10.5c0 2.56 0.18 3.64 2.56 3.64 1.9 0 3.49-1.58 3.49-3.17v-8.21h-1.73c-0.65 0-1.08-0.432-1.08-0.9v-1.87c0-0.504 0.47-0.9 1.08-0.9h5.76c0.65 0 1.08 0.432 1.08 0.9zm3.02-12.2v-1.91c0-0.432 0.36-0.9 1.08-0.9h4.9c0.68 0 1.04 0.432 1.12 0.828l0.14 0.972c1.48-1.58 3.53-2.2 5.4-2.2 3.92 0 6.12 2.3 6.12 6.48v8.89h1.55c0.65 0 1.08 0.432 1.08 0.9v1.76c0 0.504-0.47 0.9-1.08 0.9h-7.85c-0.65 0-1.08-0.432-1.08-0.9v-1.76c0-0.504 0.47-0.9 1.08-0.9h1.19v-7.09c0-2.56-0.22-4-2.56-4-1.91 0-3.49 1.58-3.49 3.17v7.92h1.69c0.72 0 1.08 0.468 1.08 0.9v1.76c0 0.504-0.47 0.9-1.08 0.9h-8.17c-0.65 0-1.08-0.432-1.08-0.9v-1.76c0-0.504 0.47-0.9 1.08-0.9h1.37v-11.3h-1.41c-0.61 0-1.08-0.36-1.08-0.864zm39.8 12.2h1.01c0.64 0 1.08 0.432 1.08 0.9v1.76c0 0.504-0.47 0.9-1.08 0.9h-4.07c-0.69 0-1.05-0.468-1.08-0.864l-0.11-0.864c-1.4 1.48-3.38 2.16-5.51 2.16-4.89 0-7.88-3.1-7.88-9.18 0-7.06 3.85-10.2 8.46-10.2 1.73 0 3.13 0.576 4.07 1.22v-6.16h-1.37c-0.65 0-1.08-0.432-1.08-0.9v-1.91c0-0.504 0.39-0.9 1.08-0.9h5.4c0.61 0 1.08 0.396 1.08 0.9zm-5.11-3.56v-6.26c-0.33-0.396-1.52-1.66-3.46-1.66-2.2 0-3.92 1.33-3.92 5.69 0 3.2 0.43 5.94 3.7 5.94 1.77 0 3.68-1.33 3.68-3.71zm15.8-15.3v-1.84c0-0.504 0.39-0.9 1.04-0.9 2.3-0.108 5.44-0.216 7.81-0.216 5.29 0 13.7 1.12 13.7 12.1 0 9.18-5.83 13.2-14 13.2h-7.48c-0.65 0-1.08-0.432-1.08-0.9v-1.76c0-0.504 0.46-0.9 1.08-0.9h1.33v-18h-1.33c-0.65 0-1.08-0.432-1.08-0.9zm7.52 18.9h1.84c5.04 0 7.77-3.71 7.77-9.07 0-6.16-2.45-9.07-7.85-9.07h-1.76zm27.3-7.88v-0.9c0-1.73-0.22-3.13-2.59-3.13-1.95 0-2.42 0.72-2.7 2.02-0.08 0.324-0.4 0.828-1.08 0.828h-2.31c-0.65 0-1.08-0.468-1.04-0.936 0.21-3.92 3.85-5.4 7.7-5.4 5.55 0 6.99 3.06 6.99 6.26v9.11h1c0.65 0 1.08 0.432 1.08 0.9v1.76c0 0.504-0.46 0.9-1.08 0.9h-4.24c-0.69 0-1.05-0.468-1.08-0.828l-0.08-0.612c-1.29 1.22-3.06 1.87-5.25 1.87-2.88 0-5.87-1.44-5.87-5.44 0-5.9 6.44-6.3 10.6-6.41zm0.07 5.62v-2.41c-2.77 0.036-5.72 0.216-5.72 2.84 0 1.51 0.72 2.12 2.3 2.12 2.27 0 3.42-1.33 3.42-2.56zm14.9-11.9l0.18 1.15c1.01-1.3 2.7-2.38 4.82-2.38 0.87 0 2.16 0.18 2.49 0.324 0.72 0.252 0.79 0.576 0.79 0.972v4.86c0 0.504-0.47 0.9-1.08 0.9h-2.34c-0.61 0-1.08-0.396-1.05-0.936l0.11-1.73h-0.03c-1.8 0-3.28 1.66-3.28 4.61v6.37h3.42c0.65 0 1.08 0.432 1.08 0.9v1.76c0 0.504-0.47 0.9-1.08 0.9h-9.9c-0.65 0-1.08-0.432-1.08-0.9v-1.76c0-0.504 0.47-0.9 1.08-0.9h1.37v-11.3h-1.41c-0.64 0-1.08-0.432-1.08-0.9v-1.87c0-0.504 0.4-0.9 1.08-0.9h4.76c0.64 0 1.04 0.432 1.15 0.828zm16.8-8.96v14h1l5.48-5.36c0.32-0.324 0.82-0.504 1.33-0.504h2.81c0.64 0 1.08 0.432 1.08 0.9v1.87c0 0.504-0.47 0.9-1.08 0.9h-1.91l-3.64 3.53 4.68 7.78h1.77c0.64 0 1.08 0.432 1.08 0.9v1.76c0 0.504-0.47 0.9-1.08 0.9h-4.65c-0.61 0-1.04-0.288-1.29-0.648l-5.3-8.53h-0.28v5.62h1.36c0.65 0 1.08 0.432 1.08 0.9v1.76c0 0.504-0.46 0.9-1.08 0.9h-7.84c-0.65 0-1.08-0.432-1.08-0.9v-1.76c0-0.504 0.46-0.9 1.08-0.9h1.36v-20.4h-1.4c-0.65 0-1.08-0.432-1.08-0.9v-1.84c0-0.432 0.36-0.9 1.08-0.9h5.44c0.64 0 1.08 0.432 1.08 0.9zm28.7 24.6c0.22 0.54-0.07 0.9-0.57 1.19-1.26 0.684-3.6 1.33-6.19 1.33-6.34 0-8.82-4.18-8.82-9.72 0-4.82 2.77-9.65 8.78-9.65 5.94 0 7.56 4.82 7.56 8.75 0 0.324 0 0.792-0.04 1.26-0.03 0.468-0.25 0.9-1.18 0.9h-10c0.25 2.84 1.15 4.72 4.5 4.72 1.51 0 2.52-0.324 3.81-0.9 0.62-0.288 1.3 0.036 1.48 0.468zm-10.5-9.32h6.37c-0.04-1.98-0.61-3.78-2.99-3.78-2.52 0-3.24 1.98-3.38 3.78zm19.1-6.3l0.18 1.15c1.01-1.3 2.7-2.38 4.83-2.38 0.86 0 2.16 0.18 2.48 0.324 0.72 0.252 0.79 0.576 0.79 0.972v4.86c0 0.504-0.46 0.9-1.08 0.9h-2.34c-0.61 0-1.08-0.396-1.04-0.936l0.11-1.73h-0.04c-1.8 0-3.27 1.66-3.27 4.61v6.37h3.42c0.64 0 1.08 0.432 1.08 0.9v1.76c0 0.504-0.47 0.9-1.08 0.9h-9.9c-0.65 0-1.08-0.432-1.08-0.9v-1.76c0-0.504 0.46-0.9 1.08-0.9h1.36v-11.3h-1.4c-0.65 0-1.08-0.432-1.08-0.9v-1.87c0-0.504 0.4-0.9 1.08-0.9h4.75c0.65 0 1.05 0.432 1.15 0.828z"/>
</svg>
