<?xml version="1.0" encoding="UTF-8" standalone="no"?>
<svg viewBox="0 0 320 85" xmlns="http://www.w3.org/2000/svg">
        <path d="M0.548,14.904 C0.548,5.22 6.704,1.944 11.816,1.944 C14.516,1.944 17.18,2.592 19.34,3.78 C19.664,3.96 19.808,4.14 19.808,4.5 L19.808,9.144 C19.808,9.504 19.628,9.684 19.268,9.684 L17.252,9.684 C16.892,9.684 16.712,9.54 16.748,9.144 L16.856,6.624 C15.524,5.724 13.652,5.112 11.78,5.112 C6.524,5.112 4.868,9.252 4.868,14.328 C4.868,19.728 6.776,24.3 12.392,24.3 C14.336,24.3 15.956,23.904 16.892,23.148 L16.748,20.628 C16.712,20.232 16.892,20.088 17.252,20.088 L19.304,20.088 C19.664,20.088 19.844,20.232 19.844,20.628 L19.844,25.2 C19.844,25.56 19.844,25.704 19.484,25.884 C17.864,26.676 15.272,27.432 12.248,27.432 C4.076,27.432 0.548,22.356 0.548,14.904 Z M33.992,8.784 C34.784,8.784 35.972,8.964 36.296,9.072 C36.692,9.216 36.728,9.36 36.728,9.72 L36.728,14.58 C36.728,14.976 36.548,15.12 36.188,15.12 L33.848,15.12 C33.488,15.12 33.308,14.976 33.344,14.58 L33.488,12.492 C33.308,12.456 33.056,12.456 32.876,12.456 C30.716,12.456 29.06,14.328 29.06,17.424 L29.06,24.156 L33.02,24.156 C33.38,24.156 33.56,24.336 33.56,24.696 L33.56,26.46 C33.56,26.856 33.38,27 33.02,27 L23.12,27 C22.76,27 22.58,26.82 22.58,26.46 L22.58,24.696 C22.58,24.3 22.76,24.156 23.12,24.156 L25.028,24.156 L25.028,12.132 L23.084,12.132 C22.724,12.132 22.544,11.952 22.544,11.592 L22.544,9.72 C22.544,9.324 22.688,9.18 23.084,9.18 L27.836,9.18 C28.196,9.18 28.376,9.36 28.448,9.72 L28.844,12.276 C29.564,10.548 31.4,8.784 33.992,8.784 Z M47.42,27.432 C41.444,27.432 39.14,23.544 39.14,18.072 C39.14,13.32 41.732,8.784 47.384,8.784 C52.892,8.784 54.404,13.284 54.404,17.172 C54.404,17.496 54.404,17.964 54.368,18.396 C54.332,18.828 54.26,18.972 53.72,18.972 L43.136,18.972 C43.352,22.032 44.324,24.408 48.212,24.408 C49.832,24.408 50.984,24.048 52.28,23.472 C52.64,23.292 52.856,23.4 53,23.76 L53.684,25.416 C53.828,25.776 53.684,25.956 53.36,26.136 C52.1,26.82 49.904,27.432 47.42,27.432 Z M43.136,16.308 L50.624,16.308 C50.66,14.148 50.048,11.808 47.096,11.808 C43.964,11.808 43.208,14.4 43.136,16.308 Z M62.648,12.132 L62.648,21.204 C62.648,23.22 62.936,24.408 64.808,24.408 C65.744,24.408 66.356,24.192 67.004,23.904 C67.292,23.796 67.436,23.832 67.58,24.192 L68.228,25.848 C68.372,26.208 68.228,26.388 67.904,26.568 C66.896,27.072 65.168,27.432 63.8,27.432 C58.616,27.432 58.616,23.94 58.616,20.808 L58.616,12.132 L56.564,12.132 C56.204,12.132 56.024,11.952 56.024,11.592 L56.024,9.72 C56.024,9.324 56.204,9.18 56.564,9.18 L58.616,9.18 L58.616,4.32 C58.616,3.96 58.76,3.78 59.156,3.78 L62.108,3.78 C62.468,3.78 62.648,3.96 62.648,4.32 L62.648,9.18 L66.284,9.18 C66.644,9.18 66.824,9.36 66.824,9.72 L66.824,11.592 C66.824,11.988 66.644,12.132 66.284,12.132 Z M78.308,27.432 C72.332,27.432 70.028,23.544 70.028,18.072 C70.028,13.32 72.62,8.784 78.272,8.784 C83.78,8.784 85.292,13.284 85.292,17.172 C85.292,17.496 85.292,17.964 85.256,18.396 C85.22,18.828 85.148,18.972 84.608,18.972 L74.024,18.972 C74.24,22.032 75.212,24.408 79.1,24.408 C80.72,24.408 81.872,24.048 83.168,23.472 C83.528,23.292 83.744,23.4 83.888,23.76 L84.572,25.416 C84.716,25.776 84.572,25.956 84.248,26.136 C82.988,26.82 80.792,27.432 78.308,27.432 Z M74.024,16.308 L81.512,16.308 C81.548,14.148 80.936,11.808 77.984,11.808 C74.852,11.808 74.096,14.4 74.024,16.308 Z M95.012,26.46 L95.012,24.696 C95.012,24.336 95.192,24.156 95.552,24.156 L97.424,24.156 L97.424,5.436 L95.552,5.436 C95.192,5.436 95.012,5.256 95.012,4.896 L95.012,3.096 C95.012,2.7 95.156,2.556 95.552,2.556 C97.856,2.448 101.132,2.34 103.22,2.34 C109.412,2.34 112.58,4.428 112.58,9.036 C112.58,12.276 110.78,14.688 108.224,15.876 L112.436,24.156 L114.668,24.156 C115.028,24.156 115.208,24.336 115.208,24.696 L115.208,26.46 C115.208,26.856 115.028,27 114.668,27 L109.916,27 C109.52,27 109.304,26.856 109.124,26.532 L104.228,16.848 L103.508,16.848 C102.644,16.848 102.068,16.812 101.456,16.74 L101.456,24.156 L103.724,24.156 C104.084,24.156 104.264,24.336 104.264,24.696 L104.264,26.46 C104.264,26.856 104.12,27 103.724,27 L95.552,27 C95.192,27 95.012,26.856 95.012,26.46 Z M101.456,5.328 L101.456,14.004 C101.744,14.04 101.996,14.04 102.284,14.04 C106.1,14.04 108.44,12.564 108.44,9.432 C108.44,6.012 105.668,5.328 102.752,5.328 Z M117.008,18.36 C117.008,10.764 122.084,8.784 125.54,8.784 C128.348,8.784 133.64,9.648 133.64,17.604 C133.64,24.336 129.752,27.432 124.964,27.432 C120.068,27.432 117.008,24.48 117.008,18.36 Z M125.288,24.48 C128.24,24.48 129.428,22.248 129.428,18.108 C129.428,14.076 128.312,11.736 125.216,11.736 C122.228,11.736 121.076,14.076 121.076,17.568 C121.076,20.772 121.688,24.48 125.288,24.48 Z M153.26,24.156 L154.844,24.156 C155.204,24.156 155.384,24.336 155.384,24.696 L155.384,26.46 C155.384,26.856 155.204,27 154.844,27 L150.812,27 C150.452,27 150.344,26.82 150.272,26.46 L149.948,24.444 C148.328,26.532 146.276,27.432 143.9,27.432 C140.012,27.432 138.068,25.38 138.068,21.312 L138.068,12.132 L136.16,12.132 C135.8,12.132 135.62,11.952 135.62,11.592 L135.62,9.72 C135.62,9.324 135.764,9.18 136.16,9.18 L141.56,9.18 C141.92,9.18 142.1,9.36 142.1,9.72 L142.1,20.232 C142.1,22.788 142.352,24.228 145.196,24.228 C147.464,24.228 149.228,22.464 149.228,20.7 L149.228,12.132 L146.96,12.132 C146.6,12.132 146.42,11.952 146.42,11.592 L146.42,9.72 C146.42,9.324 146.6,9.18 146.96,9.18 L152.72,9.18 C153.08,9.18 153.26,9.36 153.26,9.72 Z M157.364,11.628 L157.364,9.72 C157.364,9.36 157.508,9.18 157.904,9.18 L162.8,9.18 C163.16,9.18 163.304,9.36 163.376,9.72 L163.7,11.808 C165.176,9.576 167.336,8.784 169.46,8.784 C173.096,8.784 175.04,10.836 175.04,14.904 L175.04,24.156 L177.128,24.156 C177.488,24.156 177.668,24.336 177.668,24.696 L177.668,26.46 C177.668,26.856 177.488,27 177.128,27 L169.28,27 C168.92,27 168.74,26.82 168.74,26.46 L168.74,24.696 C168.74,24.3 168.92,24.156 169.28,24.156 L171.008,24.156 L171.008,16.704 C171.008,14.148 170.756,12.348 167.912,12.348 C165.644,12.348 163.88,14.112 163.88,15.876 L163.88,24.156 L166.112,24.156 C166.508,24.156 166.652,24.336 166.652,24.696 L166.652,26.46 C166.652,26.856 166.472,27 166.112,27 L157.94,27 C157.58,27 157.4,26.82 157.4,26.46 L157.4,24.696 C157.4,24.3 157.58,24.156 157.94,24.156 L159.848,24.156 L159.848,12.132 L157.904,12.132 C157.508,12.132 157.364,12.024 157.364,11.628 Z M196.028,24.156 L197.576,24.156 C197.936,24.156 198.116,24.336 198.116,24.696 L198.116,26.46 C198.116,26.856 197.936,27 197.576,27 L193.508,27 C193.148,27 193.004,26.82 192.968,26.46 L192.68,24.336 C191.384,26.532 189.26,27.432 186.812,27.432 C182.204,27.432 179.468,24.588 179.468,18.612 C179.468,11.664 183.032,8.784 187.388,8.784 C189.692,8.784 191.312,9.828 191.996,10.8 L191.996,3.132 L190.088,3.132 C189.728,3.132 189.548,2.952 189.548,2.592 L189.548,0.684 C189.548,0.288 189.692,0.144 190.088,0.144 L195.488,0.144 C195.848,0.144 196.028,0.288 196.028,0.684 Z M191.996,20.232 L191.996,13.896 C191.996,13.896 190.664,11.952 188,11.952 C185.48,11.952 183.536,13.464 183.536,18 C183.536,21.204 184.004,24.3 187.784,24.3 C189.836,24.3 191.996,22.824 191.996,20.232 Z M191.996,20.232"></path>
        <path d="M63.188,69.492 L63.188,78.204 C63.188,80.112 63.476,81.048 64.808,81.048 C65.636,81.048 66.104,80.868 66.824,80.58 C67.256,80.4 67.868,80.544 68.084,81.048 L68.732,82.704 C68.948,83.244 68.66,83.604 68.156,83.892 C67.112,84.396 65.24,84.792 63.8,84.792 C58.076,84.792 58.076,80.94 58.076,77.808 L58.076,69.492 L56.564,69.492 C55.916,69.492 55.484,69.06 55.484,68.592 L55.484,66.72 C55.484,66.216 55.952,65.82 56.564,65.82 L58.076,65.82 L58.076,61.32 C58.076,60.888 58.436,60.42 59.156,60.42 L62.108,60.42 C62.756,60.42 63.188,60.852 63.188,61.32 L63.188,65.82 L66.284,65.82 C66.932,65.82 67.364,66.252 67.364,66.72 L67.364,68.592 C67.364,69.096 66.896,69.492 66.284,69.492 Z M53.504,80.616 L54.188,82.272 C54.404,82.812 54.116,83.172 53.612,83.46 C52.352,84.144 50.012,84.792 47.42,84.792 C41.084,84.792 38.6,80.616 38.6,75.072 C38.6,70.248 41.372,65.424 47.384,65.424 C53.324,65.424 54.944,70.248 54.944,74.172 C54.944,74.496 54.944,74.964 54.908,75.432 C54.872,75.9 54.656,76.332 53.72,76.332 L43.712,76.332 C43.964,79.176 44.864,81.048 48.212,81.048 C49.724,81.048 50.732,80.724 52.028,80.148 C52.64,79.86 53.324,80.184 53.504,80.616 Z M84.392,80.616 L85.076,82.272 C85.292,82.812 85.004,83.172 84.5,83.46 C83.24,84.144 80.9,84.792 78.308,84.792 C71.972,84.792 69.488,80.616 69.488,75.072 C69.488,70.248 72.26,65.424 78.272,65.424 C84.212,65.424 85.832,70.248 85.832,74.172 C85.832,74.496 85.832,74.964 85.796,75.432 C85.76,75.9 85.544,76.332 84.608,76.332 L74.6,76.332 C74.852,79.176 75.752,81.048 79.1,81.048 C80.612,81.048 81.62,80.724 82.916,80.148 C83.528,79.86 84.212,80.184 84.392,80.616 Z M28.988,66.648 L29.168,67.8 C30.176,66.504 31.868,65.424 33.992,65.424 C34.856,65.424 36.152,65.604 36.476,65.748 C37.196,66 37.268,66.324 37.268,66.72 L37.268,71.58 C37.268,72.084 36.8,72.48 36.188,72.48 L33.848,72.48 C33.236,72.48 32.768,72.084 32.804,71.544 L32.912,69.816 L32.876,69.816 C31.076,69.816 29.6,71.472 29.6,74.424 L29.6,80.796 L33.02,80.796 C33.668,80.796 34.1,81.228 34.1,81.696 L34.1,83.46 C34.1,83.964 33.632,84.36 33.02,84.36 L23.12,84.36 C22.472,84.36 22.04,83.928 22.04,83.46 L22.04,81.696 C22.04,81.192 22.508,80.796 23.12,80.796 L24.488,80.796 L24.488,69.492 L23.084,69.492 C22.436,69.492 22.004,69.06 22.004,68.592 L22.004,66.72 C22.004,66.216 22.4,65.82 23.084,65.82 L27.836,65.82 C28.484,65.82 28.88,66.252 28.988,66.648 Z M74.6,72.948 L80.972,72.948 C80.936,70.968 80.36,69.168 77.984,69.168 C75.464,69.168 74.744,71.148 74.6,72.948 Z M43.712,72.948 L50.084,72.948 C50.048,70.968 49.472,69.168 47.096,69.168 C44.576,69.168 43.856,71.148 43.712,72.948 Z M94.472,83.46 L94.472,81.696 C94.472,81.228 94.904,80.796 95.552,80.796 L96.884,80.796 L96.884,62.796 L95.552,62.796 C94.904,62.796 94.472,62.364 94.472,61.896 L94.472,60.096 C94.472,59.592 94.868,59.196 95.516,59.196 C97.82,59.088 101.132,58.98 103.22,58.98 C109.628,58.98 113.12,61.284 113.12,66.036 C113.12,69.168 111.392,71.688 108.836,73.02 L112.832,80.796 L114.668,80.796 C115.316,80.796 115.748,81.228 115.748,81.696 L115.748,83.46 C115.748,83.964 115.28,84.36 114.668,84.36 L109.916,84.36 C109.304,84.36 108.836,84.036 108.656,83.712 L103.832,74.208 L103.508,74.208 C102.896,74.208 102.428,74.208 101.996,74.172 L101.996,80.796 L103.724,80.796 C104.372,80.796 104.804,81.228 104.804,81.696 L104.804,83.46 C104.804,83.964 104.408,84.36 103.724,84.36 L95.552,84.36 C94.94,84.36 94.472,83.964 94.472,83.46 Z M20.384,77.628 L20.384,82.2 C20.384,82.56 20.384,82.884 19.736,83.208 C18.116,84 15.38,84.792 12.248,84.792 C3.752,84.792 0.008,79.428 0.008,71.904 C0.008,62.04 6.524,58.584 11.816,58.584 C14.588,58.584 17.432,59.268 19.592,60.456 C20.096,60.744 20.348,61.068 20.348,61.5 L20.348,66.144 C20.348,66.612 19.916,67.044 19.268,67.044 L17.252,67.044 C16.64,67.044 16.172,66.648 16.208,66.144 L16.316,63.768 C15.02,62.94 13.436,62.472 11.78,62.472 C6.992,62.472 5.408,66.36 5.408,71.328 C5.408,76.62 7.244,80.94 12.392,80.94 C14.12,80.94 15.452,80.652 16.352,80.04 L16.208,77.664 C16.172,77.124 16.64,76.728 17.252,76.728 L19.304,76.728 C19.916,76.728 20.384,77.124 20.384,77.628 Z M101.996,62.688 L101.996,70.68 L102.284,70.68 C105.812,70.68 107.9,69.348 107.9,66.432 C107.9,63.264 105.596,62.688 102.752,62.688 Z M116.468,75.36 C116.468,67.548 121.94,65.424 125.54,65.424 C128.492,65.424 134.18,66.288 134.18,74.604 C134.18,81.444 130.004,84.792 124.964,84.792 C119.78,84.792 116.468,81.588 116.468,75.36 Z M125.288,81.12 C127.808,81.12 128.888,79.14 128.888,75.108 C128.888,71.184 127.844,69.096 125.216,69.096 C122.696,69.096 121.616,71.184 121.616,74.568 C121.616,77.7 122.228,81.12 125.288,81.12 Z M153.8,80.796 L154.844,80.796 C155.492,80.796 155.924,81.228 155.924,81.696 L155.924,83.46 C155.924,83.964 155.456,84.36 154.844,84.36 L150.812,84.36 C150.092,84.36 149.804,83.892 149.732,83.532 L149.588,82.56 C148.04,84.072 146.024,84.792 143.9,84.792 C139.724,84.792 137.528,82.488 137.528,78.312 L137.528,69.492 L136.16,69.492 C135.512,69.492 135.08,69.06 135.08,68.592 L135.08,66.72 C135.08,66.216 135.476,65.82 136.16,65.82 L141.56,65.82 C142.208,65.82 142.64,66.252 142.64,66.72 L142.64,77.232 C142.64,79.788 142.82,80.868 145.196,80.868 C147.104,80.868 148.688,79.284 148.688,77.7 L148.688,69.492 L146.96,69.492 C146.312,69.492 145.88,69.06 145.88,68.592 L145.88,66.72 C145.88,66.216 146.348,65.82 146.96,65.82 L152.72,65.82 C153.368,65.82 153.8,66.252 153.8,66.72 Z M156.824,68.628 L156.824,66.72 C156.824,66.288 157.184,65.82 157.904,65.82 L162.8,65.82 C163.484,65.82 163.844,66.252 163.916,66.648 L164.06,67.62 C165.536,66.036 167.588,65.424 169.46,65.424 C173.384,65.424 175.58,67.728 175.58,71.904 L175.58,80.796 L177.128,80.796 C177.776,80.796 178.208,81.228 178.208,81.696 L178.208,83.46 C178.208,83.964 177.74,84.36 177.128,84.36 L169.28,84.36 C168.632,84.36 168.2,83.928 168.2,83.46 L168.2,81.696 C168.2,81.192 168.668,80.796 169.28,80.796 L170.468,80.796 L170.468,73.704 C170.468,71.148 170.252,69.708 167.912,69.708 C166.004,69.708 164.42,71.292 164.42,72.876 L164.42,80.796 L166.112,80.796 C166.832,80.796 167.192,81.264 167.192,81.696 L167.192,83.46 C167.192,83.964 166.724,84.36 166.112,84.36 L157.94,84.36 C157.292,84.36 156.86,83.928 156.86,83.46 L156.86,81.696 C156.86,81.192 157.328,80.796 157.94,80.796 L159.308,80.796 L159.308,69.492 L157.904,69.492 C157.292,69.492 156.824,69.132 156.824,68.628 Z M196.568,80.796 L197.576,80.796 C198.224,80.796 198.656,81.228 198.656,81.696 L198.656,83.46 C198.656,83.964 198.188,84.36 197.576,84.36 L193.508,84.36 C192.824,84.36 192.464,83.892 192.428,83.496 L192.32,82.632 C190.916,84.108 188.936,84.792 186.812,84.792 C181.916,84.792 178.928,81.696 178.928,75.612 C178.928,68.556 182.78,65.424 187.388,65.424 C189.116,65.424 190.52,66 191.456,66.648 L191.456,60.492 L190.088,60.492 C189.44,60.492 189.008,60.06 189.008,59.592 L189.008,57.684 C189.008,57.18 189.404,56.784 190.088,56.784 L195.488,56.784 C196.1,56.784 196.568,57.18 196.568,57.684 Z M191.456,77.232 L191.456,70.968 C191.132,70.572 189.944,69.312 188,69.312 C185.804,69.312 184.076,70.644 184.076,75 C184.076,78.204 184.508,80.94 187.784,80.94 C189.548,80.94 191.456,79.608 191.456,77.232 Z M207.296,61.932 L207.296,60.096 C207.296,59.592 207.692,59.196 208.34,59.196 C210.644,59.088 213.776,58.98 216.152,58.98 C221.444,58.98 229.832,60.096 229.832,71.112 C229.832,80.292 224,84.36 215.864,84.36 L208.376,84.36 C207.728,84.36 207.296,83.928 207.296,83.46 L207.296,81.696 C207.296,81.192 207.764,80.796 208.376,80.796 L209.708,80.796 L209.708,62.832 L208.376,62.832 C207.728,62.832 207.296,62.4 207.296,61.932 Z M214.82,80.832 L216.656,80.832 C221.696,80.832 224.432,77.124 224.432,71.76 C224.432,65.604 221.984,62.688 216.584,62.688 L214.82,62.688 Z M242.108,72.948 L242.108,72.048 C242.108,70.32 241.892,68.916 239.516,68.916 C237.572,68.916 237.104,69.636 236.816,70.932 C236.744,71.256 236.42,71.76 235.736,71.76 L233.432,71.76 C232.784,71.76 232.352,71.292 232.388,70.824 C232.604,66.9 236.24,65.424 240.092,65.424 C245.636,65.424 247.076,68.484 247.076,71.688 L247.076,80.796 L248.084,80.796 C248.732,80.796 249.164,81.228 249.164,81.696 L249.164,83.46 C249.164,83.964 248.696,84.36 248.084,84.36 L243.836,84.36 C243.152,84.36 242.792,83.892 242.756,83.532 L242.684,82.92 C241.388,84.144 239.624,84.792 237.428,84.792 C234.548,84.792 231.56,83.352 231.56,79.356 C231.56,73.452 238.004,73.056 242.108,72.948 Z M242.18,78.564 L242.18,76.152 C239.408,76.188 236.456,76.368 236.456,78.996 C236.456,80.508 237.176,81.12 238.76,81.12 C241.028,81.12 242.18,79.788 242.18,78.564 Z M257.048,66.648 L257.228,67.8 C258.236,66.504 259.928,65.424 262.052,65.424 C262.916,65.424 264.212,65.604 264.536,65.748 C265.256,66 265.328,66.324 265.328,66.72 L265.328,71.58 C265.328,72.084 264.86,72.48 264.248,72.48 L261.908,72.48 C261.296,72.48 260.828,72.084 260.864,71.544 L260.972,69.816 L260.936,69.816 C259.136,69.816 257.66,71.472 257.66,74.424 L257.66,80.796 L261.08,80.796 C261.728,80.796 262.16,81.228 262.16,81.696 L262.16,83.46 C262.16,83.964 261.692,84.36 261.08,84.36 L251.18,84.36 C250.532,84.36 250.1,83.928 250.1,83.46 L250.1,81.696 C250.1,81.192 250.568,80.796 251.18,80.796 L252.548,80.796 L252.548,69.492 L251.144,69.492 C250.496,69.492 250.064,69.06 250.064,68.592 L250.064,66.72 C250.064,66.216 250.46,65.82 251.144,65.82 L255.896,65.82 C256.544,65.82 256.94,66.252 257.048,66.648 Z M273.896,57.684 L273.896,71.688 L274.904,71.688 L280.376,66.324 C280.7,66 281.204,65.82 281.708,65.82 L284.516,65.82 C285.164,65.82 285.596,66.252 285.596,66.72 L285.596,68.592 C285.596,69.096 285.128,69.492 284.516,69.492 L282.608,69.492 L278.972,73.02 L283.652,80.796 L285.416,80.796 C286.064,80.796 286.496,81.228 286.496,81.696 L286.496,83.46 C286.496,83.964 286.028,84.36 285.416,84.36 L280.772,84.36 C280.16,84.36 279.728,84.072 279.476,83.712 L274.184,75.18 L273.896,75.18 L273.896,80.796 L275.264,80.796 C275.912,80.796 276.344,81.228 276.344,81.696 L276.344,83.46 C276.344,83.964 275.876,84.36 275.264,84.36 L267.416,84.36 C266.768,84.36 266.336,83.928 266.336,83.46 L266.336,81.696 C266.336,81.192 266.804,80.796 267.416,80.796 L268.784,80.796 L268.784,60.42 L267.38,60.42 C266.732,60.42 266.3,59.988 266.3,59.52 L266.3,57.684 C266.3,57.252 266.66,56.784 267.38,56.784 L272.816,56.784 C273.464,56.784 273.896,57.216 273.896,57.684 Z M302.624,82.272 C302.84,82.812 302.552,83.172 302.048,83.46 C300.788,84.144 298.448,84.792 295.856,84.792 C289.52,84.792 287.036,80.616 287.036,75.072 C287.036,70.248 289.808,65.424 295.82,65.424 C301.76,65.424 303.38,70.248 303.38,74.172 C303.38,74.496 303.38,74.964 303.344,75.432 C303.308,75.9 303.092,76.332 302.156,76.332 L292.148,76.332 C292.4,79.176 293.3,81.048 296.648,81.048 C298.16,81.048 299.168,80.724 300.464,80.148 C301.076,79.86 301.76,80.184 301.94,80.616 Z M292.148,72.948 L298.52,72.948 C298.484,70.968 297.908,69.168 295.532,69.168 C293.012,69.168 292.292,71.148 292.148,72.948 Z M311.264,66.648 L311.444,67.8 C312.452,66.504 314.144,65.424 316.268,65.424 C317.132,65.424 318.428,65.604 318.752,65.748 C319.472,66 319.544,66.324 319.544,66.72 L319.544,71.58 C319.544,72.084 319.076,72.48 318.464,72.48 L316.124,72.48 C315.512,72.48 315.044,72.084 315.08,71.544 L315.188,69.816 L315.152,69.816 C313.352,69.816 311.876,71.472 311.876,74.424 L311.876,80.796 L315.296,80.796 C315.944,80.796 316.376,81.228 316.376,81.696 L316.376,83.46 C316.376,83.964 315.908,84.36 315.296,84.36 L305.396,84.36 C304.748,84.36 304.316,83.928 304.316,83.46 L304.316,81.696 C304.316,81.192 304.784,80.796 305.396,80.796 L306.764,80.796 L306.764,69.492 L305.36,69.492 C304.712,69.492 304.28,69.06 304.28,68.592 L304.28,66.72 C304.28,66.216 304.676,65.82 305.36,65.82 L310.112,65.82 C310.76,65.82 311.156,66.252 311.264,66.648 Z M311.264,66.648"></path>
</svg>